<svg id="Layer_1" enable-background="new 0 0 500 500" height="500" viewBox="0 0 500 500" width="500" xmlns="http://www.w3.org/2000/svg"><g clip-rule="evenodd" fill="#df8681" fill-rule="evenodd"><path d="m251.362 149.304c-27.094 0-49.055 21.963-49.055 49.053 0 27.095 21.961 49.056 49.055 49.056s49.056-21.961 49.056-49.056c0-27.089-21.962-49.053-49.056-49.053zm0 81.667c-18.012 0-32.613-14.601-32.613-32.613 0-18.011 14.601-32.612 32.613-32.612 18.013 0 32.613 14.602 32.613 32.612.001 18.012-14.6 32.613-32.613 32.613z"/><path d="m251.363 3.123c-106.202 0-192.288 85.912-192.288 191.899 0 47.213 14.575 92.749 57.373 146.74 37.22 46.953 134.915 151.233 134.915 151.233s85.495-99.296 127.165-151.233c41.672-51.938 65.12-100.236 65.12-146.74 0-105.987-86.085-191.899-192.285-191.899zm108.637 251.298c0 7.741-6.29 14.579-14.031 14.579h-189.212c-7.739 0-14.757-6.838-14.757-14.579v-108.622c0-7.74 7.018-13.799 14.757-13.799h35.04c5.708-1 11.686-4.947 18.85-16.935 6.081-10.169 16.188-8.065 16.188-8.065h49.026s12.246-.584 16.599 8.167c8.106 16.294 17.82 16.833 18.438 16.833h35.072c7.741 0 14.031 6.06 14.031 13.799v108.622z"/></g></svg>